<?xml version="1.0" standalone="no"?>
<!DOCTYPE svg PUBLIC "-//W3C//DTD SVG 20010904//EN"
 "http://www.w3.org/TR/2001/REC-SVG-20010904/DTD/svg10.dtd">
<svg version="1.0" xmlns="http://www.w3.org/2000/svg"
 width="700.000000pt" height="700.000000pt" viewBox="0 0 700.000000 700.000000"
 preserveAspectRatio="xMidYMid meet">
<metadata>
Created by potrace 1.14, written by Peter Selinger 2001-2017
</metadata>
<g transform="translate(0.000000,700.000000) scale(0.100000,-0.100000)"
fill="#000000" stroke="none">
<path d="M1117 6985 c-50 -19 -112 -65 -143 -107 -46 -60 -57 -98 -63 -218
l-6 -115 -165 -1 c-186 -1 -248 -7 -317 -30 -148 -50 -290 -171 -355 -304 -73
-148 -68 58 -65 -2580 l2 -2375 23 -67 c65 -193 197 -325 401 -401 60 -22
-129 -20 2654 -27 l67 0 0 -122 c0 -141 13 -199 66 -308 76 -155 258 -292 424
-320 45 -7 380 -10 1095 -8 l1030 3 58 22 c98 37 169 83 238 154 127 128 179
263 179 466 0 62 3 113 8 113 149 0 266 10 319 27 196 64 340 209 409 413 18
53 19 135 19 2445 0 2630 5 2421 -64 2565 -50 104 -158 213 -261 263 -154 75
8 70 -2065 71 l-1860 1 -6 115 c-7 165 -49 242 -164 307 l-50 28 -685 2 c-572
2 -691 0 -723 -12z"/>
</g>
</svg>
